<?xml version="1.0" standalone="no"?>
<!DOCTYPE svg PUBLIC "-//W3C//DTD SVG 20010904//EN"
 "http://www.w3.org/TR/2001/REC-SVG-20010904/DTD/svg10.dtd">
<svg version="1.0" xmlns="http://www.w3.org/2000/svg"
 width="1024.000000pt" height="1024.000000pt" viewBox="0 0 1024.000000 1024.000000"
 preserveAspectRatio="xMidYMid meet">
<metadata>
Created by potrace 1.11, written by Peter Selinger 2001-2013
</metadata>
<g transform="translate(0.000000,1024.000000) scale(0.100000,-0.100000)"
fill="#000000" stroke="none">
<path d="M0 5120 l0 -5120 5120 0 5120 0 0 5120 0 5120 -5120 0 -5120 0 0
-5120z m5960 3455 c258 -20 509 -68 701 -133 529 -181 1003 -538 1288 -972
172 -261 274 -717 242 -1084 -59 -677 -411 -1222 -1019 -1575 -105 -61 -248
-123 -408 -176 -148 -49 -384 -156 -384 -175 0 -6 50 -115 111 -243 145 -301
137 -286 688 -1449 349 -740 471 -1006 471 -1033 0 -25 -8 -43 -25 -60 l-24
-25 -442 0 c-431 0 -444 1 -487 21 -38 19 -115 110 -561 668 -817 1021 -1496
1879 -1584 2003 -62 86 -121 209 -153 314 -35 117 -38 269 -6 356 43 119 126
205 257 268 92 45 128 55 360 105 285 61 600 168 816 276 147 73 325 197 403
280 113 119 153 231 135 383 -32 290 -209 449 -571 513 -93 16 -170 18 -790
18 -675 0 -687 0 -714 -20 -21 -16 -198 -378 -741 -1515 -393 -822 -724 -1505
-736 -1518 -11 -12 -37 -26 -56 -32 -52 -14 -577 -12 -621 3 -25 9 -40 23 -53
49 l-19 38 462 2292 c254 1261 466 2307 471 2325 14 44 47 83 83 99 47 20
2642 20 2906 -1z"/>
</g>
</svg>
