<?xml version="1.0" encoding="UTF-8" standalone="no"?>
<svg
   version="1.1"
   id="Warstwa_1"
   x="0px"
   y="0px"
   width="641.32379"
   height="95.528008"
   viewBox="0 0 641.32378 95.528007"
   enable-background="new 0 0 340.16 113.39"
   xmlns="http://www.w3.org/2000/svg"
   xmlns:svg="http://www.w3.org/2000/svg">
  <defs
     id="defs6" />
  <g
     id="g1"
     transform="translate(-172.6634,-9.2826116)"
     style="fill:#ffffff">
    <path
       d="M 227.13574,103.98507 214.80989,81.6952 h -14.57897 v 22.28987 H 172.6634 V 21.312062 h 43.33931 q 18.68759,0 28.89286,7.665828 10.33783,7.665828 10.33783,21.70019 0,9.081059 -4.10863,15.8034 -3.97608,6.604406 -11.53064,10.496287 l 18.82013,27.007303 z m -26.90482,-41.1596 h 15.77179 q 6.2292,0 9.54259,-2.948396 3.44594,-2.948395 3.44594,-8.491379 0,-5.425047 -3.44594,-8.255507 -3.31339,-2.948395 -9.54259,-2.948395 h -15.77179 z m 65.07594,-22.997485 h 26.77229 V 103.98507 H 265.30686 Z M 278.56047,9.2826084 q 6.09666,0 9.94021,3.4201396 3.84355,3.420139 3.84355,8.845186 0,5.425048 -3.84355,8.845186 -3.84355,3.420139 -9.94021,3.420139 -6.09665,0 -10.07273,-3.420139 -3.84355,-3.420138 -3.84355,-8.845186 0,-5.425047 3.84355,-8.845186 3.97608,-3.4201396 10.07273,-3.4201396 z M 378.8909,16.476694 v 87.508376 h -26.7723 v -7.312019 q -3.57847,3.891879 -8.61485,6.014719 -5.03636,2.12285 -11.13303,2.12285 -9.9402,0 -17.49475,-4.12775 -7.55457,-4.127761 -11.79572,-11.557709 -4.10861,-7.547897 -4.10861,-17.572441 0,-9.788672 3.97608,-17.100694 4.10862,-7.429956 11.53064,-11.439774 7.42202,-4.009817 17.22969,-4.009817 6.36173,0 11.53064,2.122844 5.16891,2.122845 8.87991,6.132662 V 16.476694 Z m -39.76083,70.053875 q 5.83159,0 9.41006,-3.891882 3.57847,-4.009818 3.57847,-10.496288 0,-6.368534 -3.57847,-10.260416 -3.57847,-4.009817 -9.41006,-4.009817 -5.96413,0 -9.5426,4.009817 -3.57847,3.891882 -3.57847,10.260416 0,6.48647 3.57847,10.496288 3.57847,3.891882 9.5426,3.891882 z m 85.35387,-47.528134 q 17.75985,0 27.70005,9.434865 9.94021,9.31693 9.94021,25.592072 0,2.476652 -0.13254,3.65601 h -48.50821 q 1.59043,4.599497 5.16891,7.076145 3.711,2.476659 8.87991,2.476659 8.34978,0 15.90433,-6.132665 l 13.9163,12.147389 q -5.69905,5.660915 -13.9163,8.60932 -8.08469,2.94839 -18.15744,2.94839 -11.92825,0 -20.67563,-4.00982 -8.74738,-4.127749 -13.51867,-11.439773 -4.63877,-7.429955 -4.63877,-17.218628 0,-9.906608 4.7713,-17.336565 4.7713,-7.547893 13.38614,-11.675646 8.61485,-4.127753 19.88041,-4.127753 z m 11.13304,27.007302 q 0.13254,-4.717433 -2.9158,-7.783764 -3.04833,-3.066332 -7.95216,-3.066332 -4.63877,0 -7.6871,2.948396 -3.04832,2.948396 -4.10861,7.9017 z m 125.38046,37.975333 -5.43397,-13.208809 h -37.50772 l -5.56651,13.208809 h -28.36272 l 39.62829,-82.673008 h 28.36272 l 38.30293,82.673008 z m -35.2546,-31.135056 h 22.53114 L 537.14095,45.842712 Z m 68.6543,-56.37332 h 26.77229 v 87.508376 h -26.77229 z m 72.49778,22.525741 q 17.75983,0 27.70003,9.434865 9.94022,9.31693 9.94022,25.592072 0,2.476652 -0.13254,3.65601 h -48.5082 q 1.59042,4.599497 5.1689,7.076145 3.71101,2.476659 8.87991,2.476659 8.34978,0 15.90434,-6.132665 l 13.91629,12.147389 q -5.69906,5.660915 -13.91629,8.60932 -8.08471,2.94839 -18.15745,2.94839 -11.92825,0 -20.67562,-4.00982 -8.74738,-4.127749 -13.51869,-11.439773 -4.63876,-7.429955 -4.63876,-17.218628 0,-9.906608 4.7713,-17.336565 4.7713,-7.547893 13.38615,-11.675646 8.61484,-4.127753 19.88041,-4.127753 z m 11.13303,27.007302 q 0.13253,-4.717433 -2.9158,-7.783764 -3.04833,-3.066332 -7.95216,-3.066332 -4.63876,0 -7.68709,2.948396 -3.04833,2.948396 -4.10863,7.9017 z m 60.17196,-16.039272 q 3.84355,-5.307111 9.5426,-8.137571 5.83159,-2.948395 13.12108,-2.948395 v 21.464319 q -1.59044,-0.235872 -4.63877,-0.235872 -8.34977,0 -13.25361,3.538075 -4.7713,3.538074 -4.7713,9.670736 V 103.98507 H 711.42763 V 39.827985 h 26.77228 z"
       id="text7"
       style="font-weight:800;font-size:125.023px;font-family:Montserrat;-inkscape-font-specification:'Montserrat, Ultra-Bold';letter-spacing:-3.5px;word-spacing:0px;fill:#ffffff;stroke-width:11.7738;stroke-opacity:0"
       aria-label="Ride Aler" />
    <path
       d="m 813.9872,100.68287 c -2.56237,1.25798 -5.69906,2.28009 -9.41006,3.06633 -3.62266,0.70761 -7.28949,1.06141 -11.0005,1.06141 -7.68709,0 -13.82793,-1.88697 -18.42252,-5.66091 -4.59458,-3.77394 -6.89188,-8.92381 -6.89188,-15.449592 V 58.108032 42.894312 25.086004 H 794.902 v 17.808308 h 17.75984 v 15.21372 H 794.902 v 21.936059 c 0,2.044225 0.53014,3.577392 1.59043,4.5995 1.06029,1.022107 2.56236,1.533166 4.50622,1.533166 1.6788,0 4.41788,-0.628992 8.21724,-1.886975 z"
       id="text1"
       style="font-weight:800;font-size:125.023px;font-family:Montserrat;-inkscape-font-specification:'Montserrat, Ultra-Bold';letter-spacing:-3.5px;word-spacing:0px;fill:#ffffff;stroke-width:11.7738;stroke-opacity:0"
       aria-label="t" />
  </g>
</svg>
